<svg width="19" height="19" viewBox="0 0 19 19" fill="none" xmlns="http://www.w3.org/2000/svg">
<path d="M7.26172 18.6377C6.72461 18.6377 6.32715 18.4121 5.95117 17.9502L0.386719 10.9893C0.118164 10.6562 0 10.3447 0 10.0225C0 9.28125 0.547852 8.74414 1.2998 8.74414C1.77246 8.74414 2.09473 8.91602 2.40625 9.33496L7.21875 15.5117L16.5537 0.6875C16.876 0.182617 17.1875 0 17.7139 0C18.4658 0 18.9814 0.515625 18.9814 1.25684C18.9814 1.54688 18.8955 1.84766 18.6699 2.19141L8.57227 17.9395C8.26074 18.4014 7.83105 18.6377 7.26172 18.6377Z" fill="white"/>
</svg>
