<svg width="13" height="14" viewBox="0 0 13 14" fill="none" xmlns="http://www.w3.org/2000/svg">
<path d="M6.71157 13.6712C6.42532 13.6712 6.15079 13.5575 5.94839 13.3551C5.74598 13.1527 5.63226 12.8781 5.63226 12.5919C5.63226 12.3056 5.74598 12.0311 5.94839 11.8287C6.15079 11.6263 6.42532 11.5126 6.71157 11.5126L10.3093 11.5126C10.4047 11.5126 10.4962 11.4747 10.5637 11.4072C10.6311 11.3397 10.669 11.2482 10.669 11.1528L10.669 2.51838C10.669 2.42296 10.6311 2.33145 10.5637 2.26398C10.4962 2.19651 10.4047 2.15861 10.3093 2.15861L7.07134 2.15861C6.78509 2.15861 6.51056 2.0449 6.30815 1.84249C6.10574 1.64008 5.99203 1.36555 5.99203 1.0793C5.99203 0.793054 6.10574 0.518529 6.30815 0.31612C6.51056 0.113711 6.78509 -2.33277e-06 7.07134 -2.35779e-06L10.3093 -2.64086e-06C10.9772 -2.69925e-06 11.6177 0.265325 12.09 0.737613C12.5623 1.2099 12.8276 1.85046 12.8276 2.51838L12.8276 11.1528C12.8276 11.8207 12.5623 12.4613 12.09 12.9336C11.6177 13.4059 10.9772 13.6712 10.3093 13.6712L6.71157 13.6712ZM2.35117 9.6346L0.315604 7.59831C0.113485 7.39594 -4.34879e-05 7.12162 -4.35129e-05 6.8356C-4.35379e-05 6.54958 0.113485 6.27526 0.315604 6.07289L2.35045 4.0366C2.55293 3.83413 2.82754 3.72038 3.11388 3.72038C3.40023 3.72038 3.67484 3.83413 3.87731 4.0366C4.07979 4.23907 4.19354 4.51369 4.19354 4.80003C4.19354 5.08637 4.07979 5.36099 3.87731 5.56346L3.68448 5.7563L6.71157 5.75629C6.99782 5.75629 7.27235 5.87001 7.47475 6.07242C7.67716 6.27483 7.79088 6.54935 7.79088 6.8356C7.79088 7.12185 7.67716 7.39638 7.47475 7.59879C7.27235 7.80119 6.99782 7.91491 6.71157 7.91491L3.68448 7.91491L3.87731 8.10774C3.97752 8.208 4.057 8.32701 4.11121 8.45798C4.16543 8.58895 4.19331 8.72932 4.19328 8.87107C4.19325 9.01281 4.1653 9.15317 4.11102 9.28411C4.05674 9.41506 3.97721 9.53403 3.87695 9.63424C3.7767 9.73445 3.65769 9.81393 3.52672 9.86814C3.39575 9.92236 3.25538 9.95024 3.11363 9.95021C2.97188 9.95018 2.83153 9.92222 2.70058 9.86795C2.56964 9.81367 2.45066 9.73414 2.35045 9.63388L2.35117 9.6346Z" fill="#FF2828"/>
</svg>
