<svg width="17" height="17" viewBox="0 0 17 17" fill="none" xmlns="http://www.w3.org/2000/svg">
<path d="M7.12365 0.487276C7.50787 0.172716 7.99572 0 8.5 0C9.00428 0 9.49213 0.172716 9.87635 0.487276L16.2513 5.70563C16.486 5.89774 16.6745 6.13668 16.8038 6.4059C16.933 6.67511 17 6.96817 17 7.26478V15.4257C17 15.8433 16.8278 16.2437 16.5212 16.5389C16.2147 16.8341 15.7989 17 15.3654 17H12.75C12.3165 17 11.9007 16.8341 11.5942 16.5389C11.2876 16.2437 11.1154 15.8433 11.1154 15.4257V11.3327C11.1154 10.9996 10.9784 10.6801 10.7345 10.4441C10.4905 10.2081 10.1594 10.0748 9.81358 10.0733H7.18577C6.84008 10.0749 6.50914 10.2083 6.26532 10.4443C6.02149 10.6804 5.88461 10.9997 5.88462 11.3327V15.4257C5.88462 15.6325 5.84233 15.8372 5.76019 16.0282C5.67804 16.2192 5.55764 16.3927 5.40585 16.5389C5.25406 16.6851 5.07386 16.8011 4.87554 16.8802C4.67722 16.9593 4.46466 17 4.25 17H1.63462C1.20109 17 0.785318 16.8341 0.478768 16.5389C0.172218 16.2437 0 15.8433 0 15.4257V7.26478C1.72033e-05 6.96817 0.066979 6.67511 0.196248 6.4059C0.325517 6.13668 0.514004 5.89774 0.748654 5.70563L7.12365 0.487276Z" fill="#FEFAFA"/>
</svg>
