<svg width="6" height="10" viewBox="0 0 6 10" fill="none" xmlns="http://www.w3.org/2000/svg">
<path d="M5.77056 9.77988C5.91747 9.6389 6 9.44771 6 9.24837C6 9.04902 5.91747 8.85783 5.77056 8.71685L1.89154 4.99546L5.77056 1.27408C5.91331 1.13229 5.99229 0.94238 5.99051 0.745262C5.98872 0.548144 5.90631 0.359584 5.76101 0.220195C5.61572 0.080806 5.41917 0.00174143 5.21371 2.85328e-05C5.00824 -0.00168436 4.81029 0.0740923 4.66249 0.211038L0.229439 4.46394C0.0825291 4.60492 -2.27469e-07 4.79611 -2.18755e-07 4.99546C-2.10042e-07 5.19481 0.0825291 5.386 0.229439 5.52698L4.66249 9.77988C4.80945 9.92082 5.00873 10 5.21653 10C5.42432 10 5.62361 9.92082 5.77056 9.77988Z" fill="white"/>
</svg>
