<svg width="12" height="11" viewBox="0 0 12 11" fill="none" xmlns="http://www.w3.org/2000/svg">
<path d="M1.2 11H1.8V3.47368H1.2C0.88174 3.47368 0.576515 3.59568 0.351472 3.81282C0.126428 4.02997 0 4.32449 0 4.63158V9.8421C0 10.1492 0.126428 10.4437 0.351472 10.6609C0.576515 10.878 0.88174 11 1.2 11ZM10.8 3.47368H6.6L7.2732 1.52379C7.33327 1.34977 7.34963 1.16446 7.32094 0.983142C7.29225 0.801822 7.21933 0.629671 7.10819 0.480871C6.99704 0.33207 6.85085 0.210877 6.68165 0.127273C6.51245 0.0436696 6.32509 4.7539e-05 6.135 0H6L3 3.14832V11H9.6L11.9472 6.02337L12 5.78947V4.63158C12 4.32449 11.8736 4.02997 11.6485 3.81282C11.4235 3.59568 11.1183 3.47368 10.8 3.47368Z" fill="#979595"/>
</svg>
