<svg width="17" height="17" viewBox="0 0 17 17" fill="none" xmlns="http://www.w3.org/2000/svg">
<path fill-rule="evenodd" clip-rule="evenodd" d="M4.72222 3.77778C4.72222 2.77585 5.12024 1.81496 5.82871 1.10649C6.53718 0.398015 7.49807 0 8.5 0C9.50193 0 10.4628 0.398015 11.1713 1.10649C11.8798 1.81496 12.2778 2.77585 12.2778 3.77778C12.2778 4.77971 11.8798 5.7406 11.1713 6.44907C10.4628 7.15754 9.50193 7.55556 8.5 7.55556C7.49807 7.55556 6.53718 7.15754 5.82871 6.44907C5.12024 5.7406 4.72222 4.77971 4.72222 3.77778ZM4.72222 9.44444C3.46981 9.44444 2.2687 9.94196 1.38311 10.8276C0.497518 11.7131 0 12.9143 0 14.1667C0 14.9181 0.298511 15.6388 0.829864 16.1701C1.36122 16.7015 2.08189 17 2.83333 17H14.1667C14.9181 17 15.6388 16.7015 16.1701 16.1701C16.7015 15.6388 17 14.9181 17 14.1667C17 12.9143 16.5025 11.7131 15.6169 10.8276C14.7313 9.94196 13.5302 9.44444 12.2778 9.44444H4.72222Z" fill="#979797"/>
</svg>
