<svg width="12" height="12" viewBox="0 0 12 12" fill="none" xmlns="http://www.w3.org/2000/svg">
<path d="M10.8 3.78947H7.4328L8.1066 1.66295C8.2278 1.27895 8.1666 0.853263 7.9416 0.524842C7.7166 0.196421 7.3518 0 6.9672 0H6C5.8218 0 5.6532 0.0833684 5.5386 0.227368L2.7186 3.78947H1.2C0.5382 3.78947 0 4.356 0 5.05263V10.7368C0 11.4335 0.5382 12 1.2 12H9.1842C9.42833 11.9991 9.66647 11.9203 9.86713 11.7739C10.0678 11.6276 10.2215 11.4205 10.308 11.1802L11.9622 6.53747C11.9873 6.46656 12.0001 6.39147 12 6.31579V5.05263C12 4.356 11.4618 3.78947 10.8 3.78947ZM1.2 5.05263H2.4V10.7368H1.2V5.05263ZM10.8 6.20147L9.1842 10.7368H3.6V4.64968L6.2808 1.26316H6.9684L6.0312 4.22084C6.00078 4.31578 5.99229 4.41698 6.00644 4.51606C6.0206 4.61514 6.05699 4.70924 6.1126 4.79055C6.1682 4.87187 6.24142 4.93806 6.32619 4.98364C6.41095 5.02922 6.50482 5.05287 6.6 5.05263H10.8V6.20147Z" fill="#979595"/>
</svg>
